<?xml version="1.0" standalone="no"?>
<!DOCTYPE svg PUBLIC "-//W3C//DTD SVG 20010904//EN"
 "http://www.w3.org/TR/2001/REC-SVG-20010904/DTD/svg10.dtd">
<svg version="1.0" xmlns="http://www.w3.org/2000/svg"
 width="480.000000pt" height="270.000000pt" viewBox="0 0 480.000000 270.000000"
 preserveAspectRatio="xMidYMid meet">

<g transform="translate(0.000000,270.000000) scale(0.100000,-0.100000)"
fill="#000000" stroke="none">
<path d="M1035 1763 c-47 -10 -78 -28 -103 -59 -26 -31 -30 -33 -62 -24 -50
14 -104 -3 -137 -45 -16 -19 -37 -35 -48 -35 -33 -1 -100 -36 -123 -65 -31
-39 -43 -92 -32 -139 12 -54 38 -87 90 -113 40 -21 59 -23 182 -23 l138 0 0
-40 0 -40 -165 0 c-181 0 -161 6 -227 -69 -33 -36 -33 -39 -12 -69 20 -30 68
-30 88 0 21 30 20 44 -5 69 -38 38 -19 49 81 49 l90 0 0 -63 c0 -50 -4 -66
-20 -80 -26 -22 -26 -59 0 -82 28 -25 71 -10 85 29 8 25 6 31 -18 52 -24 20
-27 30 -27 84 l0 60 135 0 135 0 0 -60 c0 -50 -4 -63 -26 -85 -27 -27 -26 -59
4 -82 32 -25 74 -9 87 34 4 17 -1 30 -19 48 -22 22 -26 35 -26 85 l0 60 89 0
c68 0 92 -4 101 -15 11 -13 10 -18 -8 -31 -24 -17 -30 -62 -10 -82 30 -30 98
-1 98 42 0 10 -19 37 -42 62 l-43 44 -162 0 -163 0 0 39 0 39 154 4 c137 3
158 5 182 24 94 70 96 189 4 252 -18 12 -43 22 -55 22 -18 0 -21 4 -18 24 10
52 -34 134 -85 160 -33 17 -80 25 -107 19z m117 -53 c40 -33 60 -79 56 -130
-3 -30 0 -34 27 -40 47 -10 74 -28 95 -63 26 -41 25 -80 -1 -126 -37 -67 -32
-66 -364 -69 -336 -3 -347 -1 -392 67 -63 94 9 231 122 231 23 0 34 7 47 30
10 17 34 38 54 46 35 15 46 14 104 -10 10 -4 21 4 34 25 26 45 72 69 131 69
41 0 57 -5 87 -30z m-542 -619 c15 -29 2 -51 -31 -51 -25 0 -29 4 -29 29 0 42
41 56 60 22z m730 4 c20 -25 8 -50 -25 -50 -21 0 -31 5 -33 18 -4 21 14 47 33
47 7 0 18 -7 25 -15z m-516 -91 c20 -8 21 -38 1 -54 -27 -23 -65 10 -51 45 6
16 24 19 50 9z m294 -23 c5 -30 -10 -45 -37 -36 -21 6 -29 43 -14 59 15 15 48
1 51 -23z"/>
<path d="M1621 1504 c-24 -20 -31 -34 -31 -63 0 -53 23 -78 106 -116 59 -27
75 -39 80 -61 8 -33 -4 -54 -40 -72 -37 -18 -80 -7 -110 29 -16 18 -30 27 -40
23 -22 -8 -20 -18 10 -53 63 -75 201 -54 228 36 4 12 0 37 -8 56 -11 29 -27
41 -83 67 -82 39 -103 56 -103 85 0 56 77 73 130 29 36 -31 60 -22 41 15 -29
54 -129 68 -180 25z"/>
<path d="M1850 1511 c0 -17 8 -20 53 -23 l52 -3 3 -167 c2 -159 4 -168 22
-168 18 0 20 9 22 168 l3 167 48 3 c39 3 47 6 47 23 0 18 -8 19 -125 19 -117
0 -125 -1 -125 -19z"/>
<path d="M2303 1518 c-8 -10 -140 -303 -160 -355 -3 -8 4 -13 18 -13 19 0 28
10 42 45 l19 45 101 0 102 0 18 -45 c15 -35 24 -45 42 -45 28 0 35 -19 -73
220 -67 149 -87 176 -109 148z m97 -229 c0 -5 -36 -9 -80 -9 l-79 0 19 45 c11
25 30 66 41 93 l21 47 39 -84 c22 -46 39 -87 39 -92z"/>
<path d="M2550 1340 l0 -190 25 0 25 0 0 146 0 147 111 -144 c63 -82 119 -145
130 -147 18 -3 19 5 19 187 0 184 -1 191 -20 191 -19 0 -20 -7 -20 -146 0
-123 -2 -145 -14 -135 -7 6 -60 72 -117 146 -64 84 -110 135 -121 135 -17 0
-18 -14 -18 -190z"/>
<path d="M2927 1523 c-4 -3 -7 -12 -7 -20 0 -10 23 -13 100 -13 55 0 100 -3
100 -6 0 -3 -47 -79 -104 -170 l-105 -164 145 0 c137 0 144 1 144 20 0 19 -7
20 -105 20 -58 0 -105 2 -105 5 0 3 43 73 95 156 53 82 98 156 102 164 4 13
-15 15 -124 15 -71 0 -133 -3 -136 -7z"/>
<path d="M3349 1510 c-140 -74 -139 -272 3 -346 15 -8 52 -14 83 -14 84 0 146
42 179 122 66 156 -115 318 -265 238z m169 -48 c60 -43 80 -138 42 -200 -81
-133 -281 -67 -267 89 10 115 133 176 225 111z"/>
<path d="M3688 1463 c-2 -38 -2 -123 0 -190 3 -113 5 -123 22 -123 18 0 20 10
22 145 l3 145 110 -145 c67 -88 117 -145 128 -145 16 0 17 16 17 190 0 182 -1
190 -20 190 -18 0 -20 -8 -22 -147 l-3 -148 -114 148 c-63 81 -120 147 -127
147 -9 0 -14 -21 -16 -67z"/>
<path d="M4060 1340 l0 -190 110 0 c103 0 110 1 110 20 0 19 -7 20 -90 20
l-90 0 0 65 0 65 70 0 c63 0 70 2 70 20 0 18 -7 20 -70 20 l-71 0 3 63 3 62
83 3 c74 3 82 5 82 22 0 19 -7 20 -105 20 l-105 0 0 -190z"/>
</g>
</svg>
